<svg xmlns="http://www.w3.org/2000/svg" width="255" height="216" viewBox="0 0 255 216">
<g>
<path d="M 145.35 190.63 C141.35,192.30 140.33,192.29 136.50,190.58 C132.56,188.83 108.00,164.26 108.00,162.08 C108.00,160.25 113.16,154.93 116.68,153.12 C117.89,152.50 121.12,152.00 123.88,152.00 C128.58,152.00 129.26,152.35 135.02,157.68 L 141.15 163.35 L 168.82 135.68 L 196.49 108.00 L 169.50 81.00 C154.66,66.15 141.94,54.00 141.25,54.00 C140.55,54.00 137.29,56.47 134.00,59.50 C128.80,64.28 127.49,65.00 123.96,65.00 C121.73,65.00 118.69,64.36 117.20,63.59 C114.19,62.01 108.31,56.17 107.82,54.27 C107.64,53.59 113.35,47.16 120.50,39.99 C135.13,25.31 137.85,23.77 144.96,26.12 C148.38,27.25 156.27,34.64 189.06,67.38 C211.03,89.32 229.00,107.72 229.00,108.27 C229.00,110.18 148.71,189.22 145.35,190.63 ZM 73.46 132.01 C47.91,157.51 47.37,157.88 41.84,154.23 C38.72,152.18 30.00,143.37 30.00,142.28 C30.00,141.86 37.53,133.98 46.74,124.76 L 63.48 108.00 L 46.70 91.20 C35.26,79.75 30.12,73.93 30.56,72.95 C30.92,72.15 33.86,69.14 37.10,66.25 C43.38,60.64 46.04,59.90 50.80,62.43 C52.28,63.22 63.40,73.80 75.50,85.95 L 97.50 108.03 ZM 144.15 121.97 C142.14,122.53 140.27,122.96 140.00,122.93 C137.87,122.68 133.97,120.38 131.26,117.76 C123.07,109.85 127.83,96.20 139.37,94.47 C147.63,93.23 155.00,99.77 155.00,108.34 C155.00,112.28 154.45,113.61 151.40,116.98 C149.30,119.30 146.28,121.38 144.15,121.97 Z" fill="rgb(232,29,38)"/>
<path d="M 0.00 108.00 L 0.00 0.00 L 127.50 0.00 L 255.00 0.00 L 255.00 108.00 L 255.00 216.00 L 127.50 216.00 L 0.00 216.00 L 0.00 108.00 ZM 145.35 190.63 C148.71,189.22 229.00,110.18 229.00,108.27 C229.00,107.72 211.03,89.32 189.06,67.38 C156.27,34.64 148.38,27.25 144.96,26.12 C137.85,23.77 135.13,25.31 120.50,39.99 C113.35,47.16 107.64,53.59 107.82,54.27 C108.31,56.17 114.19,62.01 117.20,63.59 C118.69,64.36 121.73,65.00 123.96,65.00 C127.49,65.00 128.80,64.28 134.00,59.50 C137.29,56.47 140.55,54.00 141.25,54.00 C141.94,54.00 154.66,66.15 169.50,81.00 L 196.49 108.00 L 168.82 135.68 L 141.15 163.35 L 135.02 157.68 C129.26,152.35 128.58,152.00 123.88,152.00 C121.12,152.00 117.89,152.50 116.68,153.12 C113.16,154.93 108.00,160.25 108.00,162.08 C108.00,164.26 132.56,188.83 136.50,190.58 C140.33,192.29 141.35,192.30 145.35,190.63 ZM 73.46 132.01 L 97.50 108.03 L 75.50 85.95 C63.40,73.80 52.28,63.22 50.80,62.43 C46.04,59.90 43.38,60.64 37.10,66.25 C33.86,69.14 30.92,72.15 30.56,72.95 C30.12,73.93 35.26,79.75 46.70,91.20 L 63.48 108.00 L 46.74 124.76 C37.53,133.98 30.00,141.86 30.00,142.28 C30.00,143.37 38.72,152.18 41.84,154.23 C47.37,157.88 47.91,157.51 73.46,132.01 ZM 144.15 121.97 C146.28,121.38 149.30,119.30 151.40,116.98 C154.45,113.61 155.00,112.28 155.00,108.34 C155.00,99.77 147.63,93.23 139.37,94.47 C127.83,96.20 123.07,109.85 131.26,117.76 C133.97,120.38 137.87,122.68 140.00,122.93 C140.27,122.96 142.14,122.53 144.15,121.97 Z" fill="rgb(254,254,253)"/>
</g>
</svg>